<svg width="50" height="50" fill="none" xmlns="http://www.w3.org/2000/svg"><g clip-path="url(#a)"><path d="M31.71 13.148l-6.961 6.96-6.96-6.96a2.188 2.188 0 00-3.094 0l-1.547 1.547a2.188 2.188 0 000 3.093l6.96 6.96-6.96 6.961a2.188 2.188 0 000 3.094l1.547 1.547c.854.854 2.239.854 3.093 0l6.96-6.96 6.961 6.96c.854.854 2.24.854 3.094 0l1.547-1.547a2.188 2.188 0 000-3.094l-6.96-6.96 6.96-6.96a2.188 2.188 0 000-3.094l-1.547-1.547a2.188 2.188 0 00-3.094 0z" fill="#060606"/></g><defs><clipPath id="a"><path fill="#fff" transform="rotate(-45 29.874 12.374)" d="M0 0H35V35H0z"/></clipPath></defs></svg>