<svg width="41" height="40" fill="none" xmlns="http://www.w3.org/2000/svg"><path d="M20.124 2.25c9.871 0 17.874 8.003 17.874 17.874 0 9.871-8.003 17.874-17.874 17.874-9.871 0-17.874-8.003-17.874-17.874 0-9.871 8.003-17.874 17.874-17.874z" stroke="#F9F9F9" stroke-width="4.5"/><path d="M20.128 15.542a4.509 4.509 0 00-4.516 4.516c0 2.5 2.016 4.516 4.516 4.516s4.516-2.016 4.516-4.516-2.016-4.516-4.516-4.516zm0 7.452a2.941 2.941 0 01-2.936-2.936 2.939 2.939 0 012.936-2.936 2.939 2.939 0 012.936 2.936c0 1.62-1.32 2.936-2.936 2.936zm5.754-7.637c0 .586-.472 1.054-1.053 1.054a1.053 1.053 0 111.053-1.053zm2.991 1.07c-.067-1.412-.39-2.662-1.423-3.691-1.03-1.03-2.28-1.352-3.69-1.423-1.455-.083-5.814-.083-7.268 0-1.407.067-2.657.389-3.69 1.419-1.034 1.03-1.353 2.28-1.423 3.69-.083 1.455-.083 5.814 0 7.268.066 1.41.389 2.66 1.423 3.69 1.033 1.03 2.28 1.353 3.69 1.423 1.454.083 5.813.083 7.268 0 1.41-.067 2.66-.389 3.69-1.422 1.03-1.03 1.352-2.28 1.423-3.691.083-1.454.083-5.81 0-7.264zm-1.879 8.823c-.306.77-.9 1.364-1.674 1.675-1.16.46-3.91.353-5.192.353s-4.037.103-5.192-.353a2.973 2.973 0 01-1.675-1.675c-.46-1.16-.353-3.91-.353-5.192 0-1.281-.103-4.037.353-5.192.307-.77.9-1.364 1.675-1.674 1.16-.46 3.91-.354 5.192-.354 1.281 0 4.036-.102 5.192.354.77.306 1.364.9 1.674 1.674.46 1.16.354 3.91.354 5.192 0 1.281.106 4.037-.354 5.192z" fill="#F9F9F9"/></svg>