<svg width="41" height="40" fill="none" xmlns="http://www.w3.org/2000/svg"><path d="M20.124 2.25c9.871 0 17.874 8.003 17.874 17.874 0 9.871-8.003 17.874-17.874 17.874-9.871 0-17.874-8.003-17.874-17.874 0-9.871 8.003-17.874 17.874-17.874z" stroke="#F9F9F9" stroke-width="4.5"/><path d="M15.261 27.608h-3.65V15.852h3.65v11.756zm-1.827-13.36c-1.167 0-2.114-.966-2.114-2.133a2.114 2.114 0 014.228 0c0 1.167-.947 2.134-2.114 2.134zm15.49 13.36h-3.643v-5.722c0-1.364-.027-3.113-1.898-3.113-1.898 0-2.188 1.482-2.188 3.015v5.82h-3.647V15.852h3.501v1.604h.051c.487-.924 1.678-1.898 3.454-1.898 3.695 0 4.374 2.433 4.374 5.593v6.457h-.004z" fill="#F9F9F9"/></svg>