<svg width="40" height="40" fill="none" xmlns="http://www.w3.org/2000/svg"><path d="M3.75 10.313h32.5c.69 0 1.25-.56 1.25-1.25V5.937c0-.69-.56-1.25-1.25-1.25H3.75c-.69 0-1.25.56-1.25 1.25v3.125c0 .69.56 1.25 1.25 1.25zm0 12.5h32.5c.69 0 1.25-.56 1.25-1.25v-3.125c0-.69-.56-1.25-1.25-1.25H3.75c-.69 0-1.25.56-1.25 1.25v3.125c0 .69.56 1.25 1.25 1.25zm0 12.5h32.5c.69 0 1.25-.56 1.25-1.25v-3.126c0-.69-.56-1.25-1.25-1.25H3.75c-.69 0-1.25.56-1.25 1.25v3.125c0 .69.56 1.25 1.25 1.25z" fill="#F9F9F9"/></svg>