<svg width="41" height="40" fill="none" xmlns="http://www.w3.org/2000/svg"><path d="M20.124 2.25c9.871 0 17.874 8.003 17.874 17.874 0 9.871-8.003 17.874-17.874 17.874-9.871 0-17.874-8.003-17.874-17.874 0-9.871 8.003-17.874 17.874-17.874z" stroke="#F9F9F9" stroke-width="4.5"/><g clip-path="url(#a)"><path d="M28.096 18.427a7.432 7.432 0 01-4.344-1.389v6.324a5.751 5.751 0 11-4.961-5.699v3.18a2.64 2.64 0 101.848 2.52V11h3.113c-.002.263.02.525.066.784a4.325 4.325 0 001.908 2.839 4.298 4.298 0 002.37.713v3.091z" fill="#F9F9F9"/></g><defs><clipPath id="a"><path fill="#fff" transform="translate(11.068 11)" d="M0 0H18.111V18.111H0z"/></clipPath></defs></svg>